<?xml version="1.0" standalone="no"?>
<!DOCTYPE svg PUBLIC "-//W3C//DTD SVG 20010904//EN"
 "http://www.w3.org/TR/2001/REC-SVG-20010904/DTD/svg10.dtd">
<svg version="1.0" xmlns="http://www.w3.org/2000/svg"
 width="260.000000pt" height="260.000000pt" viewBox="0 0 260.000000 260.000000"
 preserveAspectRatio="xMidYMid meet">
<metadata>
Created by potrace 1.11, written by Peter Selinger 2001-2013
</metadata>
<g transform="translate(0.000000,260.000000) scale(0.100000,-0.100000)"
fill="#000000" stroke="none">
<path d="M165 2586 c-128 -58 -123 -246 8 -295 18 -7 273 -11 755 -11 800 -1
787 0 905 -63 81 -42 169 -133 206 -210 53 -111 64 -268 27 -375 -50 -140
-191 -260 -353 -298 -15 -4 -192 -8 -393 -10 -413 -4 -420 -5 -467 -75 -49
-75 -30 -168 45 -219 l36 -25 320 -2 c177 -1 333 -2 347 -2 23 -1 42 -27 155
-206 71 -113 150 -238 175 -278 25 -39 92 -146 149 -237 146 -235 155 -245
207 -265 61 -24 138 -14 182 23 41 34 63 108 49 162 -6 19 -129 225 -274 458
-146 232 -262 427 -259 432 3 6 10 10 15 10 21 0 133 74 186 122 150 138 232
323 236 533 3 117 -8 201 -37 291 -83 260 -285 446 -573 526 -75 21 -95 22
-847 25 -633 2 -775 0 -800 -11z"/>
</g>
</svg>
