<svg width="247" height="46" viewBox="0 0 247 46" fill="none" xmlns="http://www.w3.org/2000/svg">
<path fill-rule="evenodd" clip-rule="evenodd" d="M10.092 24.2074C9.10193 24.2074 8.29933 24.9985 8.29933 25.9744V25.9744C8.29933 26.9503 9.10193 27.7414 10.092 27.7414H11.8846H22.5808L33.5758 45.0576C33.7749 45.3325 33.9741 45.5681 34.1733 45.7644C34.4123 45.9215 34.7509 46 35.1891 46C36.1054 46 36.7029 45.7448 36.9818 45.2343C37.3005 44.7239 37.2009 44.076 36.683 43.2907L26.4051 27.0935C29.4327 26.2296 31.8628 24.6394 33.6953 22.3227C35.5278 19.9667 36.444 17.1788 36.444 13.959C36.444 11.2104 35.8066 8.79556 34.5318 6.71447C33.2571 4.63337 31.4843 3.00384 29.2136 1.82586C26.9828 0.608621 24.4133 0 21.5052 0H1.79265C1.27478 0 0.836572 0.157063 0.478041 0.471189C0.159347 0.785316 0 1.21724 0 1.76696V1.89785C0 2.80143 0.743147 3.53393 1.65987 3.53393H3.58531H21.5052C23.7361 3.53393 25.6881 3.98549 27.3612 4.8886C29.0742 5.75245 30.4087 6.96969 31.3648 8.54033C32.3607 10.111 32.8587 11.9172 32.8587 13.959C32.8587 15.9616 32.3607 17.7286 31.3648 19.2599C30.4087 20.7913 29.0742 22.0085 27.3612 22.9117C25.6881 23.7755 23.7361 24.2074 21.5052 24.2074H11.8846H10.092ZM83.9599 46C83.442 46 83.0038 45.8429 82.6453 45.5288C82.3266 45.1754 82.1672 44.7435 82.1672 44.233V1.76696C82.1672 1.25651 82.3266 0.844215 82.6453 0.530089C83.0038 0.176696 83.442 0 83.9599 0C84.4778 0 84.8961 0.176696 85.2147 0.530089C85.5733 0.844215 85.7525 1.25651 85.7525 1.76696V44.233C85.7525 44.7435 85.5733 45.1754 85.2147 45.5288C84.8961 45.8429 84.4778 46 83.9599 46ZM148.647 44.8809C148.966 45.627 149.504 46 150.261 46C150.54 46 150.819 45.9215 151.097 45.7644C151.416 45.6073 151.675 45.3128 151.874 44.8809L169.741 2.88604C170.06 2.13999 170.1 1.47247 169.861 0.883482C169.621 0.294494 169.143 0 168.426 0C167.51 0 166.853 0.490823 166.454 1.47247L150.321 39.7567L134.007 1.23687C133.609 0.412292 133.031 0 132.275 0C131.597 0 131.06 0.255229 130.661 0.765686C130.303 1.27614 130.323 1.98293 130.721 2.88604L148.647 44.8809ZM216.465 46C215.947 46 215.509 45.8429 215.151 45.5288C214.832 45.1754 214.672 44.7435 214.672 44.233V1.76696C214.672 1.25651 214.832 0.844215 215.151 0.530089C215.509 0.176696 215.947 0 216.465 0H245.207C245.685 0 246.104 0.176696 246.462 0.530089C246.821 0.844215 247 1.25651 247 1.76696C247 2.23816 246.821 2.65045 246.462 3.00384C246.104 3.35723 245.685 3.53393 245.207 3.53393H218.258V21.2036H238.037C238.555 21.2036 238.973 21.3803 239.292 21.7337C239.65 22.0478 239.829 22.4601 239.829 22.9706C239.829 23.481 239.65 23.9129 239.292 24.2663C238.973 24.6197 238.555 24.7964 238.037 24.7964H218.258V42.4661H245.207C245.685 42.4661 246.104 42.6428 246.462 42.9962C246.821 43.3496 247 43.7618 247 44.233C247 44.7435 246.821 45.1754 246.462 45.5288C246.104 45.8429 245.685 46 245.207 46H216.465Z" fill="black"/>
</svg>
